<svg width="35" height="35" viewBox="0 0 35 35" fill="none" xmlns="http://www.w3.org/2000/svg">
<g clip-path="url(#clip0_12_68)">
<path d="M17.8127 0.104797C18.9757 0.764873 20.1034 1.416 21.22 2.08712C22.9009 3.09746 24.5747 4.12069 26.2504 5.14047C27.8128 6.09134 29.3885 7.02016 30.9273 8.01072C31.4592 8.35312 31.4775 9.01025 31.339 9.56888C30.5083 12.9206 29.6384 16.2617 28.7904 19.6088C28.1636 22.0825 27.55 24.5598 26.9311 27.0357C26.8238 27.4648 26.7386 27.9011 26.6091 28.3228C26.4431 28.8638 26.0368 29.1716 25.5764 29.4474C23.2088 30.8654 20.8525 32.304 18.49 33.7314C17.8472 34.1197 17.2206 34.0037 16.6122 33.6298C14.1749 32.1322 11.7416 30.6276 9.29793 29.1412C8.78322 28.8281 8.71908 28.2741 8.59576 27.7888C7.72428 24.3591 6.89691 20.9173 6.04183 17.483C5.38004 14.825 4.71687 12.1671 4.01414 9.52062C3.81109 8.75594 4.09227 8.20922 4.65132 7.85958C5.93469 7.05692 7.22362 6.26378 8.51425 5.47375C9.96053 4.58843 11.4099 3.70847 12.8603 2.83049C14.2114 2.01264 15.5644 1.19821 16.9202 0.388812C17.0752 0.296242 17.2535 0.2457 17.4353 0.140234C17.5571 0.104797 17.6647 0.104797 17.8127 0.104797ZM21.8199 29.5434C22.5712 29.0821 23.3338 28.6393 24.0684 28.1509C24.3952 27.9337 24.8557 27.8644 24.9648 27.3575C25.0651 26.892 25.2002 26.4347 25.3172 25.973C25.9232 23.5818 26.5271 21.1899 27.1341 18.799C27.6699 16.6884 28.2109 14.5792 28.7456 12.4684C29.0109 11.4209 29.2673 10.371 29.5222 9.3445C25.5283 6.91075 21.5827 4.50644 17.6526 2.11153C16.223 2.98623 14.807 3.85684 13.3871 4.7205C10.9718 6.18958 8.55355 7.65339 6.1382 9.12238C5.92526 9.25189 5.83315 9.38316 5.91735 9.70627C6.49651 11.9287 7.02743 14.1646 7.58595 16.3929C8.48351 19.974 9.38477 23.554 10.3055 27.1286C10.3698 27.3783 10.562 27.6558 10.7719 27.7913C12.0019 28.5854 13.2535 29.3434 14.5005 30.1091C15.4785 30.7096 16.4562 31.3108 17.4456 31.8903C17.5592 31.9568 17.7774 31.9394 17.8969 31.8691C19.1858 31.1097 20.4646 30.332 21.8199 29.5434Z" fill="white"/>
<path d="M21.8271 35.1048C21.4487 34.8753 21.0939 34.6679 20.777 34.4102C20.4242 34.1233 20.4626 33.7346 20.6139 33.3437C20.7539 32.9819 21.0459 32.8218 21.372 32.9163C22.0606 33.1158 22.5677 32.7736 23.1075 32.4331C24.2479 31.7137 25.3878 30.9897 26.5637 30.337C26.9922 30.0991 27.1298 29.7691 27.2356 29.3472C27.5998 27.8943 27.9748 26.4443 28.3426 24.9923C28.8149 23.1277 29.2826 21.2619 29.7552 19.3973C30.1479 17.8479 30.5448 16.2996 30.9426 14.7402C30.6303 14.3427 30.6161 13.7192 30.921 13.3053C31.1779 12.9564 31.7679 12.8795 32.2502 13.1319C32.9038 13.4739 33.0734 13.8343 32.8857 14.5769C31.9556 18.2571 31.0175 21.935 30.0847 25.6144C29.6706 27.2479 29.2072 28.8711 28.876 30.5228C28.7188 31.3074 28.1902 31.5667 27.6561 31.8804C25.8483 32.942 24.0305 33.9852 22.2034 35.0702C22.0826 35.1048 21.9751 35.1048 21.8271 35.1048Z" fill="white"/>
<path d="M0.100891 24.5681C0.412395 24.0325 0.863187 23.9614 1.39037 23.9871C2.17811 24.0254 2.9696 24.0177 3.75799 23.9874C4.09804 23.9743 4.24711 24.1306 4.33112 24.4243C4.37314 24.5712 4.40609 24.7211 4.43886 24.8706C4.6408 25.7922 4.56754 25.868 3.58746 25.8925C3.39956 25.8972 3.15097 25.9711 3.04931 26.1082C2.97571 26.2075 3.03707 26.5274 3.14424 26.6402C3.77599 27.3048 3.66433 27.9323 3.13771 28.5838C3.03606 28.7096 2.99513 28.8883 2.88767 29.1289C3.09413 29.2047 3.27742 29.321 3.46635 29.3319C3.95197 29.36 4.44029 29.3322 4.92716 29.3437C5.53885 29.3581 6.14377 30.306 5.89609 30.8946C5.83406 31.042 5.61691 31.2109 5.46885 31.2131C3.94062 31.2364 2.41135 31.2493 0.883999 31.2049C0.641153 31.1979 0.406346 30.8924 0.134357 30.7142C0.100891 30.4207 0.100891 30.1377 0.137626 29.8067C0.21856 29.7386 0.28276 29.7317 0.303984 29.6967C0.679054 29.0779 1.06815 28.4667 1.4051 27.826C1.48084 27.6819 1.42064 27.4051 1.33602 27.2365C1.117 26.8002 0.864245 26.3795 0.59488 25.9742C0.465208 25.7791 0.267689 25.6326 0.100891 25.4641C0.100891 25.1812 0.100891 24.8982 0.100891 24.5681Z" fill="white"/>
<path d="M35.1008 30.7608C34.7689 31.1874 34.3475 31.243 33.8769 31.2352C32.5662 31.2133 31.2549 31.2299 29.9438 31.2264C29.4344 31.225 29.2226 30.9711 29.3728 30.4653C29.6198 29.6339 29.4395 29.2875 30.7382 29.3391C31.1075 29.3538 31.4779 29.3477 31.8475 29.3396C32.2797 29.3302 32.3633 29.1793 32.1858 28.7543C32.1726 28.7226 32.1721 28.6819 32.1522 28.657C31.5931 27.9553 31.5508 27.2885 32.144 26.5466C32.4433 26.1721 32.2364 25.8983 31.73 25.8833C30.6969 25.8527 30.5664 25.6307 30.8712 24.5868C31.0072 24.1211 31.241 23.965 31.7025 23.9866C32.5076 24.0242 33.3165 24.0193 34.1221 23.9874C34.5095 23.9721 34.8031 24.0779 35.0666 24.4048C35.1008 24.7684 35.1008 25.1207 35.0643 25.5218C34.6818 26.0954 34.3245 26.6124 33.9965 27.1488C33.8896 27.3237 33.7445 27.6201 33.813 27.7399C34.2098 28.4334 34.6653 29.0909 35.1008 29.7605C35.1008 30.0781 35.1008 30.3957 35.1008 30.7608Z" fill="white"/>
<path d="M13.7252 32.8002C14.1518 32.8757 14.5352 32.9925 14.6133 33.4555C14.6988 33.9622 14.5865 34.3818 14.0934 34.6805C13.4046 35.0977 13.0323 35.1071 12.3496 34.6883C11.2288 34.0009 10.0859 33.3521 8.95108 32.6895C8.33301 32.3287 7.71964 31.9579 7.09017 31.6197C6.60293 31.3579 6.39002 30.9116 6.26401 30.4062C5.31246 26.5901 4.37487 22.7702 3.41845 18.9553C3.046 17.4698 2.62495 15.9974 2.2513 14.5122C2.15418 14.1262 2.13065 13.6828 2.48889 13.4102C2.89063 13.1045 3.29537 12.7399 3.87582 12.9897C4.42352 13.2253 4.66926 14.0028 4.34932 14.5131C4.28949 14.6085 4.26548 14.7667 4.29334 14.8774C5.09565 18.0633 5.90767 21.2465 6.7159 24.4308C7.1347 26.0809 7.59246 27.7222 7.94523 29.3874C8.09376 30.0885 8.60329 30.2936 9.05708 30.5832C10.2501 31.3443 11.4769 32.0481 12.676 32.7993C13.0343 33.0237 13.3481 32.9878 13.7252 32.8002Z" fill="white"/>
<path d="M17.2488 21.2561C17.2826 21.8034 17.3312 22.3022 17.3448 22.8021C17.3614 23.4125 17.3494 24.0238 17.3486 24.6346C17.3475 25.4318 17.0225 25.7781 16.2769 25.7784C16.0753 25.7785 15.8737 25.7784 15.6721 25.7784C14.6492 25.7784 14.4113 25.6307 14.3419 24.5705C14.2436 23.0684 13.6224 21.9338 12.4624 21.0604C11.611 20.4192 11.1039 19.471 10.9293 18.4472C10.6787 16.9782 10.6223 15.4731 10.4963 13.9822C10.4826 13.8203 10.5203 13.6285 10.5983 13.4894C10.702 13.3045 10.8748 13.0189 11.0072 13.0251C11.2464 13.0362 11.6051 13.171 11.6887 13.3611C11.9506 13.9562 12.1315 14.5943 12.2988 15.2286C12.5025 16.0009 12.5949 16.8108 12.8555 17.5593C13.145 18.3908 13.8246 18.9138 14.6197 19.3143C14.3481 18.8972 14.0825 18.4757 13.8029 18.0644C13.5935 17.7565 13.3126 17.4871 13.1655 17.1522C13.0686 16.9319 13.1529 16.6256 13.1561 16.3578C13.4451 16.3726 13.8597 16.2644 14.0029 16.4222C14.9708 17.4884 15.8892 18.6038 16.806 19.719C17.1512 20.1389 17.2931 20.65 17.2488 21.2561Z" fill="white"/>
<path d="M21.3061 22.7847C21.118 23.5305 20.8954 24.2328 20.7972 24.9534C20.7296 25.4503 20.5051 25.7429 20.086 25.8022C19.4463 25.8926 18.7539 26.1324 18.2022 25.5491C18.0687 25.4079 17.969 25.1674 17.9648 24.97C17.9419 23.9061 17.9539 22.8413 17.9539 21.7768C17.9539 20.6698 18.3917 19.757 19.1105 18.9704C19.8013 18.2146 20.4994 17.466 21.184 16.7043C21.4362 16.4238 21.7266 16.3271 22.0185 16.5544C22.3556 16.817 22.1932 17.1429 22.0054 17.4234C21.5607 18.0878 21.1053 18.7444 20.7153 19.4575C21.4284 19.0159 22.1221 18.5201 22.374 17.6712C22.6778 16.6474 22.8398 15.5792 23.1103 14.5435C23.2106 14.1595 23.4059 13.7834 23.6352 13.4635C23.7355 13.3236 24.0535 13.2485 24.229 13.3012C24.3866 13.3485 24.5882 13.6082 24.5925 13.7791C24.6439 15.8156 24.7106 17.8799 23.7861 19.7503C23.4425 20.4453 22.7971 20.9792 22.29 21.5873C21.9675 21.9739 21.6464 22.3617 21.3061 22.7847Z" fill="white"/>
<path d="M15.6012 10.1826C15.7603 10.1681 15.8863 10.1367 15.9941 10.1698C16.4935 10.323 16.9876 10.6217 17.4841 10.6228C17.9723 10.6239 18.4533 10.2251 18.9512 10.185C20.243 10.081 21.1112 11.1904 21.2881 12.3668C21.5128 13.8619 20.8148 15.0232 20.0178 16.1144C19.4751 16.8572 18.7951 17.4928 18.1666 18.1665C17.7657 18.5963 17.4024 18.6834 17.0001 18.3043C15.6777 17.0583 14.4498 15.7108 13.8631 13.9078C13.3821 12.4296 14.023 10.8546 15.2373 10.3175C15.3424 10.271 15.4521 10.2358 15.6012 10.1826ZM15.0353 13.2086C15.4913 14.7183 16.46 15.8431 17.565 16.9223C17.9545 16.4755 18.3253 16.0802 18.6628 15.6563C19.2729 14.8899 19.8324 14.0918 20.0335 13.0842C20.1372 12.5647 19.7813 11.8248 19.2873 11.5991C18.9021 11.4231 18.5152 11.6015 18.1666 12.1159C17.724 12.7691 17.2289 12.753 16.8487 12.0732C16.4799 11.4137 15.8971 11.3077 15.4526 11.9076C15.2122 12.2322 15.1645 12.7109 15.0353 13.2086Z" fill="white"/>
</g>
<defs>
<clipPath id="clip0_12_68">
<rect width="35" height="35" fill="white"/>
</clipPath>
</defs>
</svg>
